<?xml version="1.0" encoding="utf-8"?>
<!-- Generator: Adobe Illustrator 24.3.0, SVG Export Plug-In . SVG Version: 6.00 Build 0)  -->
<svg version="1.1" id="Layer_1" xmlns="http://www.w3.org/2000/svg" xmlns:xlink="http://www.w3.org/1999/xlink" x="0px" y="0px"
	 viewBox="0 0 288 384" style="enable-background:new 0 0 288 384;" xml:space="preserve">
<style type="text/css">
	.st0{fill:inherit}
</style>
<g>
	<path class="st0" d="M288,49.3h-80v-20C208,13.1,194.9,0,178.7,0h-69.5C93.1,0,80,13.1,80,29.3v20H0V64h21.1l23.6,290.7
		c0,16.2,13.1,29.3,29.3,29.3h141c16.2,0,29.3-13.1,29.3-29.3L267.6,64H288V49.3z M94.6,29.3c0-8.1,6.6-14.7,14.6-14.7h69.5
		c8.1,0,14.6,6.6,14.6,14.7v20H94.6L94.6,29.3L94.6,29.3z M229.6,353.9v0.4v0.4c0,8.1-6.6,14.7-14.6,14.7H74
		c-8.1,0-14.6-6.6-14.6-14.7v-0.4v-0.4L35.7,64h217.2L229.6,353.9z"/>
	<g>
		<rect x="137" y="96" class="st0" width="14" height="241"/>
		<polygon class="st0" points="208,96 193.4,96 182.7,337 197.3,337 		"/>
		<polygon class="st0" points="94.5,96 80,96 90.7,337 105.3,337 		"/>
	</g>
</g>
</svg>
